<mxfile host="Electron" agent="Mozilla/5.0 (Macintosh; Intel Mac OS X 10_15_7) AppleWebKit/537.36 (KHTML, like Gecko) draw.io/26.2.2 Chrome/134.0.6998.178 Electron/35.1.2 Safari/537.36" version="26.2.2">
  <diagram name="Page-1" id="UIWMUq-fSCj69FTXj-sP">
    <mxGraphModel dx="1218" dy="1272" grid="1" gridSize="10" guides="1" tooltips="1" connect="1" arrows="1" fold="1" page="1" pageScale="1" pageWidth="850" pageHeight="1100" math="0" shadow="0">
      <root>
        <mxCell id="0" />
        <mxCell id="1" parent="0" />
        <mxCell id="U4BvUzr7YbCOPF6je435-1" value="" style="ellipse;whiteSpace=wrap;html=1;aspect=fixed;fillColor=#dae8fc;strokeColor=#6c8ebf;" vertex="1" parent="1">
          <mxGeometry x="1235" y="100" width="80" height="80" as="geometry" />
        </mxCell>
        <mxCell id="U4BvUzr7YbCOPF6je435-18" value="" style="endArrow=classic;dashed=1;startArrow=classic;html=1;rounded=0;entryX=0.05;entryY=0.75;entryDx=0;entryDy=0;entryPerimeter=0;exitX=0.5;exitY=0;exitDx=0;exitDy=0;" edge="1" parent="1" source="U4BvUzr7YbCOPF6je435-5">
          <mxGeometry width="50" height="50" relative="1" as="geometry">
            <mxPoint x="1040" y="230" as="sourcePoint" />
            <mxPoint x="1239" y="160" as="targetPoint" />
          </mxGeometry>
        </mxCell>
        <mxCell id="U4BvUzr7YbCOPF6je435-20" value="" style="endArrow=classic;dashed=1;startArrow=classic;html=1;rounded=0;exitX=0.938;exitY=0.763;exitDx=0;exitDy=0;exitPerimeter=0;" edge="1" parent="1">
          <mxGeometry width="50" height="50" relative="1" as="geometry">
            <mxPoint x="1310" y="159.99999999999994" as="sourcePoint" />
            <mxPoint x="1420" y="240" as="targetPoint" />
          </mxGeometry>
        </mxCell>
        <mxCell id="U4BvUzr7YbCOPF6je435-21" value="&lt;b&gt;&lt;font style=&quot;font-size: 18px;&quot;&gt;RPC&lt;/font&gt;&lt;/b&gt;" style="text;html=1;align=center;verticalAlign=middle;whiteSpace=wrap;rounded=0;" vertex="1" parent="1">
          <mxGeometry x="1370" y="170" width="60" height="30" as="geometry" />
        </mxCell>
        <mxCell id="U4BvUzr7YbCOPF6je435-22" value="&lt;b&gt;&lt;font style=&quot;font-size: 18px;&quot;&gt;RPC&lt;/font&gt;&lt;/b&gt;" style="text;html=1;align=center;verticalAlign=middle;whiteSpace=wrap;rounded=0;rotation=0;" vertex="1" parent="1">
          <mxGeometry x="1130" y="170" width="60" height="30" as="geometry" />
        </mxCell>
        <mxCell id="U4BvUzr7YbCOPF6je435-31" value="" style="group" vertex="1" connectable="0" parent="1">
          <mxGeometry x="1010" y="240" width="240" height="210" as="geometry" />
        </mxCell>
        <mxCell id="U4BvUzr7YbCOPF6je435-5" value="" style="ellipse;whiteSpace=wrap;html=1;aspect=fixed;fillColor=#dae8fc;strokeColor=#6c8ebf;" vertex="1" parent="U4BvUzr7YbCOPF6je435-31">
          <mxGeometry x="80" width="80" height="80" as="geometry" />
        </mxCell>
        <mxCell id="U4BvUzr7YbCOPF6je435-6" value="" style="ellipse;whiteSpace=wrap;html=1;aspect=fixed;fillColor=#dae8fc;strokeColor=#6c8ebf;" vertex="1" parent="U4BvUzr7YbCOPF6je435-31">
          <mxGeometry y="130" width="80" height="80" as="geometry" />
        </mxCell>
        <mxCell id="U4BvUzr7YbCOPF6je435-7" value="" style="ellipse;whiteSpace=wrap;html=1;aspect=fixed;fillColor=#dae8fc;strokeColor=#6c8ebf;" vertex="1" parent="U4BvUzr7YbCOPF6je435-31">
          <mxGeometry x="160" y="130" width="80" height="80" as="geometry" />
        </mxCell>
        <mxCell id="U4BvUzr7YbCOPF6je435-10" value="" style="endArrow=classic;startArrow=classic;html=1;rounded=0;entryX=0;entryY=1;entryDx=0;entryDy=0;" edge="1" parent="U4BvUzr7YbCOPF6je435-31" target="U4BvUzr7YbCOPF6je435-5">
          <mxGeometry width="50" height="50" relative="1" as="geometry">
            <mxPoint x="40" y="130" as="sourcePoint" />
            <mxPoint x="100" y="70" as="targetPoint" />
          </mxGeometry>
        </mxCell>
        <mxCell id="U4BvUzr7YbCOPF6je435-11" value="" style="endArrow=classic;startArrow=classic;html=1;rounded=0;entryX=0;entryY=0.5;entryDx=0;entryDy=0;" edge="1" parent="U4BvUzr7YbCOPF6je435-31" target="U4BvUzr7YbCOPF6je435-7">
          <mxGeometry width="50" height="50" relative="1" as="geometry">
            <mxPoint x="80" y="172" as="sourcePoint" />
            <mxPoint x="132" y="110" as="targetPoint" />
          </mxGeometry>
        </mxCell>
        <mxCell id="U4BvUzr7YbCOPF6je435-12" value="" style="endArrow=classic;startArrow=classic;html=1;rounded=0;entryX=0.5;entryY=0;entryDx=0;entryDy=0;" edge="1" parent="U4BvUzr7YbCOPF6je435-31" target="U4BvUzr7YbCOPF6je435-7">
          <mxGeometry width="50" height="50" relative="1" as="geometry">
            <mxPoint x="140" y="72" as="sourcePoint" />
            <mxPoint x="220" y="70" as="targetPoint" />
          </mxGeometry>
        </mxCell>
        <mxCell id="U4BvUzr7YbCOPF6je435-23" value="&lt;b&gt;&lt;font style=&quot;font-size: 18px;&quot;&gt;MPI&lt;/font&gt;&lt;/b&gt;" style="text;html=1;align=center;verticalAlign=middle;whiteSpace=wrap;rounded=0;rotation=0;" vertex="1" parent="U4BvUzr7YbCOPF6je435-31">
          <mxGeometry x="10" y="80" width="60" height="30" as="geometry" />
        </mxCell>
        <mxCell id="U4BvUzr7YbCOPF6je435-24" value="&lt;b&gt;&lt;font style=&quot;font-size: 18px;&quot;&gt;MPI&lt;/font&gt;&lt;/b&gt;" style="text;html=1;align=center;verticalAlign=middle;whiteSpace=wrap;rounded=0;rotation=0;" vertex="1" parent="U4BvUzr7YbCOPF6je435-31">
          <mxGeometry x="90" y="180" width="60" height="30" as="geometry" />
        </mxCell>
        <mxCell id="U4BvUzr7YbCOPF6je435-25" value="&lt;b&gt;&lt;font style=&quot;font-size: 18px;&quot;&gt;MPI&lt;/font&gt;&lt;/b&gt;" style="text;html=1;align=center;verticalAlign=middle;whiteSpace=wrap;rounded=0;rotation=0;" vertex="1" parent="U4BvUzr7YbCOPF6je435-31">
          <mxGeometry x="170" y="80" width="60" height="30" as="geometry" />
        </mxCell>
        <mxCell id="U4BvUzr7YbCOPF6je435-35" value="&lt;b&gt;&lt;font style=&quot;font-size: 18px;&quot;&gt;(1, 0)&lt;/font&gt;&lt;/b&gt;" style="text;strokeColor=none;fillColor=none;align=left;verticalAlign=middle;spacingLeft=4;spacingRight=4;overflow=hidden;points=[[0,0.5],[1,0.5]];portConstraint=eastwest;rotatable=0;whiteSpace=wrap;html=1;" vertex="1" parent="U4BvUzr7YbCOPF6je435-31">
          <mxGeometry x="90" y="25" width="60" height="30" as="geometry" />
        </mxCell>
        <mxCell id="U4BvUzr7YbCOPF6je435-37" value="&lt;b&gt;&lt;font style=&quot;font-size: 18px;&quot;&gt;(3, 1)&lt;/font&gt;&lt;/b&gt;" style="text;strokeColor=none;fillColor=none;align=left;verticalAlign=middle;spacingLeft=4;spacingRight=4;overflow=hidden;points=[[0,0.5],[1,0.5]];portConstraint=eastwest;rotatable=0;whiteSpace=wrap;html=1;" vertex="1" parent="U4BvUzr7YbCOPF6je435-31">
          <mxGeometry x="10" y="155" width="60" height="30" as="geometry" />
        </mxCell>
        <mxCell id="U4BvUzr7YbCOPF6je435-38" value="&lt;b&gt;&lt;font style=&quot;font-size: 18px;&quot;&gt;(4, 2)&lt;/font&gt;&lt;/b&gt;" style="text;strokeColor=none;fillColor=none;align=left;verticalAlign=middle;spacingLeft=4;spacingRight=4;overflow=hidden;points=[[0,0.5],[1,0.5]];portConstraint=eastwest;rotatable=0;whiteSpace=wrap;html=1;" vertex="1" parent="U4BvUzr7YbCOPF6je435-31">
          <mxGeometry x="170" y="150" width="60" height="30" as="geometry" />
        </mxCell>
        <mxCell id="U4BvUzr7YbCOPF6je435-32" value="" style="group" vertex="1" connectable="0" parent="1">
          <mxGeometry x="1300" y="240" width="240" height="210" as="geometry" />
        </mxCell>
        <mxCell id="U4BvUzr7YbCOPF6je435-4" value="" style="ellipse;whiteSpace=wrap;html=1;aspect=fixed;fillColor=#dae8fc;strokeColor=#6c8ebf;" vertex="1" parent="U4BvUzr7YbCOPF6je435-32">
          <mxGeometry x="80" width="80" height="80" as="geometry" />
        </mxCell>
        <mxCell id="U4BvUzr7YbCOPF6je435-8" value="" style="ellipse;whiteSpace=wrap;html=1;aspect=fixed;fillColor=#dae8fc;strokeColor=#6c8ebf;" vertex="1" parent="U4BvUzr7YbCOPF6je435-32">
          <mxGeometry y="130" width="80" height="80" as="geometry" />
        </mxCell>
        <mxCell id="U4BvUzr7YbCOPF6je435-9" value="" style="ellipse;whiteSpace=wrap;html=1;aspect=fixed;fillColor=#dae8fc;strokeColor=#6c8ebf;" vertex="1" parent="U4BvUzr7YbCOPF6je435-32">
          <mxGeometry x="160" y="130" width="80" height="80" as="geometry" />
        </mxCell>
        <mxCell id="U4BvUzr7YbCOPF6je435-13" value="" style="endArrow=classic;startArrow=classic;html=1;rounded=0;entryX=0;entryY=1;entryDx=0;entryDy=0;" edge="1" parent="U4BvUzr7YbCOPF6je435-32">
          <mxGeometry width="50" height="50" relative="1" as="geometry">
            <mxPoint x="40" y="130" as="sourcePoint" />
            <mxPoint x="92" y="68" as="targetPoint" />
          </mxGeometry>
        </mxCell>
        <mxCell id="U4BvUzr7YbCOPF6je435-14" value="" style="endArrow=classic;startArrow=classic;html=1;rounded=0;entryX=0;entryY=0.5;entryDx=0;entryDy=0;" edge="1" parent="U4BvUzr7YbCOPF6je435-32">
          <mxGeometry width="50" height="50" relative="1" as="geometry">
            <mxPoint x="80" y="171" as="sourcePoint" />
            <mxPoint x="160" y="169" as="targetPoint" />
          </mxGeometry>
        </mxCell>
        <mxCell id="U4BvUzr7YbCOPF6je435-15" value="" style="endArrow=classic;startArrow=classic;html=1;rounded=0;entryX=0.5;entryY=0;entryDx=0;entryDy=0;" edge="1" parent="U4BvUzr7YbCOPF6je435-32">
          <mxGeometry width="50" height="50" relative="1" as="geometry">
            <mxPoint x="140" y="72" as="sourcePoint" />
            <mxPoint x="200" y="130" as="targetPoint" />
          </mxGeometry>
        </mxCell>
        <mxCell id="U4BvUzr7YbCOPF6je435-26" value="&lt;b&gt;&lt;font style=&quot;font-size: 18px;&quot;&gt;MPI&lt;/font&gt;&lt;/b&gt;" style="text;html=1;align=center;verticalAlign=middle;whiteSpace=wrap;rounded=0;rotation=0;" vertex="1" parent="U4BvUzr7YbCOPF6je435-32">
          <mxGeometry x="10" y="80" width="60" height="30" as="geometry" />
        </mxCell>
        <mxCell id="U4BvUzr7YbCOPF6je435-27" value="&lt;b&gt;&lt;font style=&quot;font-size: 18px;&quot;&gt;MPI&lt;/font&gt;&lt;/b&gt;" style="text;html=1;align=center;verticalAlign=middle;whiteSpace=wrap;rounded=0;rotation=0;" vertex="1" parent="U4BvUzr7YbCOPF6je435-32">
          <mxGeometry x="90" y="180" width="60" height="30" as="geometry" />
        </mxCell>
        <mxCell id="U4BvUzr7YbCOPF6je435-28" value="&lt;b&gt;&lt;font style=&quot;font-size: 18px;&quot;&gt;MPI&lt;/font&gt;&lt;/b&gt;" style="text;html=1;align=center;verticalAlign=middle;whiteSpace=wrap;rounded=0;rotation=0;" vertex="1" parent="U4BvUzr7YbCOPF6je435-32">
          <mxGeometry x="170" y="80" width="60" height="30" as="geometry" />
        </mxCell>
        <mxCell id="U4BvUzr7YbCOPF6je435-36" value="&lt;b&gt;&lt;font style=&quot;font-size: 18px;&quot;&gt;(2, 0)&lt;/font&gt;&lt;/b&gt;" style="text;strokeColor=none;fillColor=none;align=left;verticalAlign=middle;spacingLeft=4;spacingRight=4;overflow=hidden;points=[[0,0.5],[1,0.5]];portConstraint=eastwest;rotatable=0;whiteSpace=wrap;html=1;" vertex="1" parent="U4BvUzr7YbCOPF6je435-32">
          <mxGeometry x="90" y="30" width="60" height="30" as="geometry" />
        </mxCell>
        <mxCell id="U4BvUzr7YbCOPF6je435-39" value="&lt;b&gt;&lt;font style=&quot;font-size: 18px;&quot;&gt;(5, 1)&lt;/font&gt;&lt;/b&gt;" style="text;strokeColor=none;fillColor=none;align=left;verticalAlign=middle;spacingLeft=4;spacingRight=4;overflow=hidden;points=[[0,0.5],[1,0.5]];portConstraint=eastwest;rotatable=0;whiteSpace=wrap;html=1;" vertex="1" parent="U4BvUzr7YbCOPF6je435-32">
          <mxGeometry x="10" y="155" width="60" height="30" as="geometry" />
        </mxCell>
        <mxCell id="U4BvUzr7YbCOPF6je435-40" value="&lt;b&gt;&lt;font style=&quot;font-size: 18px;&quot;&gt;(6, 2)&lt;/font&gt;&lt;/b&gt;" style="text;strokeColor=none;fillColor=none;align=left;verticalAlign=middle;spacingLeft=4;spacingRight=4;overflow=hidden;points=[[0,0.5],[1,0.5]];portConstraint=eastwest;rotatable=0;whiteSpace=wrap;html=1;" vertex="1" parent="U4BvUzr7YbCOPF6je435-32">
          <mxGeometry x="170" y="155" width="60" height="30" as="geometry" />
        </mxCell>
        <mxCell id="U4BvUzr7YbCOPF6je435-33" value="&lt;b&gt;&lt;font style=&quot;font-size: 18px;&quot;&gt;Node notation: (Global_rank, Local_rank)&lt;/font&gt;&lt;/b&gt;" style="text;strokeColor=none;fillColor=none;align=left;verticalAlign=middle;spacingLeft=4;spacingRight=4;overflow=hidden;points=[[0,0.5],[1,0.5]];portConstraint=eastwest;rotatable=0;whiteSpace=wrap;html=1;" vertex="1" parent="1">
          <mxGeometry x="1100" y="490" width="370" height="30" as="geometry" />
        </mxCell>
        <mxCell id="U4BvUzr7YbCOPF6je435-34" value="&lt;b&gt;&lt;font style=&quot;font-size: 18px;&quot;&gt;(0, -1)&lt;/font&gt;&lt;/b&gt;" style="text;strokeColor=none;fillColor=none;align=left;verticalAlign=middle;spacingLeft=4;spacingRight=4;overflow=hidden;points=[[0,0.5],[1,0.5]];portConstraint=eastwest;rotatable=0;whiteSpace=wrap;html=1;" vertex="1" parent="1">
          <mxGeometry x="1245" y="125" width="60" height="30" as="geometry" />
        </mxCell>
      </root>
    </mxGraphModel>
  </diagram>
</mxfile>
